<svg xmlns="http://www.w3.org/2000/svg" viewBox="0 0 800 725.8"><path d="M.5,201.2c.3-.2,3.4-10.7,6.9-23.1A550,550,0,0,0,22.7,106c1.2-9,3.1-22.1,4.1-28.9C30,54.6,33.6,50.4,49.6,50.4c5.1,0,21.2,1.2,35.7,2.5,26.4,2.6,27.2,2.6,239.8,2.6s213.5,0,239.8-2.6c42.4-4.1,50-3.4,54.9,5.1,2,3.4,4.4,16.4,6.5,35.7,2.8,25.5,13.7,75.4,22.1,101.4,2.2,6.8,3.9,12.5,3.7,12.6-1.7,1.4-19.2,6.4-24.2,6.8s-7.5.2-11.7-2-5.6-3.7-16-23.9c-14.1-27.2-21.8-38.8-34-50.8-14.1-14.1-28.3-21.4-51-26.8-7.4-1.7-16.4-2-67.2-2.4l-58.8-.4V449.7l6-2.6c23.5-10.4,42.9-19.4,47-21.7,6.3-3.7,32.4-15.4,33.3-15S425.1,464.8,362.6,531,249,652,249,652.6s-20,23.2-65.9,71.1c-15,15.8-27.6,29.4-28,30.3s-.7,1.1-.7-.5,2.1-5.5,4.8-9.6,8.2-13.2,12-20,9.7-16.2,12.7-20.8a71.6,71.6,0,0,0,5.6-8.7c0-.2,3-5.2,6.7-11s9.3-15.2,12.5-20.8,7.9-13,10.4-16.4a121,121,0,0,0,6.7-10.8c2.4-4.5,16.7-28.1,28.6-47l6.6-10.3V108.2l-58.7.4c-50.9.4-59.9.7-67.3,2.4-22.7,5.4-36.8,12.8-51,26.8-12.2,11.9-19.9,23.5-34,50.7-7.1,14-12,22-14,23.5-4.7,3.4-16.8,3.1-27.8-.8L0,208.3M800,74.8a11,11,0,0,1-1.7,2.5c-.9,1.2-24.6,39.6-52.8,85.5l-51,83.4.3,231.5c.2,183.2.6,232.4,1.7,235.7,2.1,6.1,6,10.2,13.5,14.1s15.8,6.7,35,10c21.8,3.9,21.5,3.7,21.5,23.2,0,8-.3,15.1-.8,15.4s-18.2-.1-39.7-1.2c-53.4-3-136.8-3-190.2,0-29.9,1.5-39.2,1.8-40.3.7s-1.3-5.7-1.2-14c0-19.8.7-20.6,22.6-24.1s35.3-8.3,42.2-15.5,7.1,3.9,7.1-183.2c0-93.2-.2-169.5-.3-169.5s-14.8,6.7-32.1,14.9l-38.9,18.1-7.4,3.3,7.4-7.6C541,349.7,709.8,170,709.8,169.1s88-94.7,89.4-94.8S800,74.5,800,74.8Z" transform="translate(0 -50.4)"/></svg>