<?xml version="1.0" encoding="utf-8"?>
<!-- Generator: Adobe Illustrator 25.4.1, SVG Export Plug-In . SVG Version: 6.00 Build 0)  -->
<svg version="1.1" id="Layer_1" xmlns="http://www.w3.org/2000/svg" xmlns:xlink="http://www.w3.org/1999/xlink" x="0px" y="0px"
	 viewBox="0 0 800 725.8" style="enable-background:new 0 0 800 725.8;" xml:space="preserve">
<style type="text/css">
	.st0{fill:#E0E0E0;}
</style>
<path class="st0" d="M0.5,150.8c0.3-0.2,3.4-10.7,6.9-23.1c6.7-23.7,11.8-47.8,15.3-72.1c1.2-9,3.1-22.1,4.1-28.9
	C30,4.2,33.6,0,49.6,0c5.1,0,21.2,1.2,35.7,2.5c26.4,2.6,27.2,2.6,239.8,2.6s213.5,0,239.8-2.6c42.4-4.1,50-3.4,54.9,5.1
	c2,3.4,4.4,16.4,6.5,35.7c2.8,25.5,13.7,75.4,22.1,101.4c2.2,6.8,3.9,12.5,3.7,12.6c-1.7,1.4-19.2,6.4-24.2,6.8
	c-5,0.4-7.5,0.2-11.7-2s-5.6-3.7-16-23.9c-14.1-27.2-21.8-38.8-34-50.8c-14.1-14.1-28.3-21.4-51-26.8c-7.4-1.7-16.4-2-67.2-2.4
	l-58.8-0.4v341.5l6-2.6c23.5-10.4,42.9-19.4,47-21.7c6.3-3.7,32.4-15.4,33.3-15s-50.4,54.4-112.9,120.6S249,601.6,249,602.2
	s-20,23.2-65.9,71.1c-15,15.8-27.6,29.4-28,30.3s-0.7,1.1-0.7-0.5s2.1-5.5,4.8-9.6s8.2-13.2,12-20s9.7-16.2,12.7-20.8
	c2.1-2.8,3.9-5.7,5.6-8.7c0-0.2,3-5.2,6.7-11s9.3-15.2,12.5-20.8s7.9-13,10.4-16.4c2.4-3.5,4.7-7.1,6.7-10.8
	c2.4-4.5,16.7-28.1,28.6-47l6.6-10.3V57.8l-58.7,0.4c-50.9,0.4-59.9,0.7-67.3,2.4C112.3,66,98.2,73.4,84,87.4
	c-12.2,11.9-19.9,23.5-34,50.7c-7.1,14-12,22-14,23.5c-4.7,3.4-16.8,3.1-27.8-0.8L0,157.9 M800,24.4c-0.4,0.9-1,1.7-1.7,2.5
	c-0.9,1.2-24.6,39.6-52.8,85.5l-51,83.4l0.3,231.5c0.2,183.2,0.6,232.4,1.7,235.7c2.1,6.1,6,10.2,13.5,14.1s15.8,6.7,35,10
	c21.8,3.9,21.5,3.7,21.5,23.2c0,8-0.3,15.1-0.8,15.4s-18.2-0.1-39.7-1.2c-53.4-3-136.8-3-190.2,0c-29.9,1.5-39.2,1.8-40.3,0.7
	s-1.3-5.7-1.2-14c0-19.8,0.7-20.6,22.6-24.1s35.3-8.3,42.2-15.5s7.1,3.9,7.1-183.2c0-93.2-0.2-169.5-0.3-169.5s-14.8,6.7-32.1,14.9
	l-38.9,18.1l-7.4,3.3l7.4-7.6c46.1-48.3,214.9-228,214.9-228.9s88-94.7,89.4-94.8S800,24.1,800,24.4z"/>
</svg>
