<svg xmlns="http://www.w3.org/2000/svg" xmlns:xlink="http://www.w3.org/1999/xlink" viewBox="0 0 800 800"><defs><linearGradient id="a" x1="400" x2="400" y2="800" gradientUnits="userSpaceOnUse"><stop offset="0" stop-color="#6a1bc2"/><stop offset="0.09" stop-color="#721bbb"/><stop offset="0.23" stop-color="#871ba8"/><stop offset="0.4" stop-color="#aa1b89"/><stop offset="0.58" stop-color="#d81b60"/><stop offset="0.73" stop-color="#e85f3c"/><stop offset="0.85" stop-color="#f4941f"/><stop offset="0.95" stop-color="#fcb50e"/><stop offset="1" stop-color="#ffc107"/></linearGradient></defs><rect width="800" height="800" rx="119.01" fill="url(#a)"/><path d="M37.44,233.86c.3-.2,3-9.5,6.1-20.4A494.16,494.16,0,0,0,57,150c1.1-8,2.7-19.5,3.6-25.5,2.8-19.8,6-23.5,20.1-23.5,4.5,0,18.7,1,31.5,2.2,23.2,2.3,23.9,2.3,211.3,2.3s188.1,0,211.3-2.3c37.4-3.6,44.1-3,48.4,4.5,1.8,3,3.9,14.4,5.7,31.4,2.5,22.5,12.1,66.5,19.5,89.4,1.9,6,3.4,11,3.3,11.1-1.5,1.2-17,5.6-21.4,6-4.8.5-6.6.2-10.3-1.8-4.3-2.2-4.9-3.2-14.1-21-12.4-24-19.2-34.2-29.9-44.8-12.5-12.4-25-18.9-45-23.6-6.5-1.5-14.4-1.8-59.2-2.1l-51.8-.4v301l5.3-2.3c20.7-9.2,37.8-17.1,41.4-19.2,5.5-3.2,28.5-13.5,29.3-13.2.4.2-44.4,48-99.5,106.3s-100.1,106.6-100.1,107.2c.1,1.3-17.6,20.4-58,62.6-13.3,13.9-24.4,25.9-24.7,26.7-.4,1.1-.6,1-.6-.4-.1-1,1.8-4.9,4.2-8.5s7.2-11.6,10.6-17.6,8.5-14.3,11.2-18.3a81.9,81.9,0,0,0,4.9-7.7c0-.2,2.6-4.6,5.9-9.7s8.2-13.4,11-18.3,7-11.5,9.2-14.5a97,97,0,0,0,5.9-9.5c2.1-4,14.7-24.8,25.2-41.4L267,566V151.86l-51.7.4c-44.9.3-52.8.6-59.3,2.1-20,4.7-32.5,11.3-45,23.6-10.7,10.5-17.5,20.7-29.9,44.7-6.3,12.3-10.6,19.4-12.4,20.7-4.1,3-14.8,2.7-24.5-.7l-7.2-2.6m705-117.6a6.87,6.87,0,0,1-1.5,2.2c-.8,1-21.7,34.9-46.5,75.3l-45,73.5.3,204c.2,161.5.5,204.8,1.5,207.7,1.8,5.4,5.3,9,11.9,12.5,7.6,4.1,13.9,5.9,30.8,8.8,19.2,3.4,19,3.2,19,20.4,0,7.1-.3,13.3-.7,13.6s-16.1-.1-35-1.1c-47.1-2.6-120.6-2.6-167.6,0-26.4,1.4-34.6,1.6-35.5.7s-1.2-5.1-1.1-12.4c0-17.4.6-18.1,19.9-21.2,19.9-3.2,31.1-7.3,37.2-13.7,6.7-6.9,6.3,3.5,6.3-161.4,0-82.2-.2-149.4-.3-149.4s-13,5.9-28.3,13.1-30.8,14.4-34.3,16l-6.5,2.9,6.5-6.7c40.7-42.6,189.4-200.9,189.4-201.7,0-1.1,77.6-83.5,78.8-83.6C741.74,122,742,122.16,742,122.46Z" fill="#fff"/></svg>